<?xml version="1.0" encoding="UTF-8"?>
<svg version="1.1" viewBox="0 0 1920 1080" width="1920" height="1080" xmlns="http://www.w3.org/2000/svg">
<path transform="translate(1528,358)" d="m0 0h2l-1 4-9 15-7 11-6 12-11 17-7 10-11 18-17 28-9 15-17 28-10 17-2 4 9-12 8-10 14-14 14-9 9-3h14l11 4 8 7 4 5 4 11v19l-8 16-11 17-13 21-10 15-2 4v10l4 2h7l11-4 13-10 12-12 1-2h2l2-4 13-16 13-18 7-10 4-4 2 1-2 6-8 11-13 18-10 12-7 9-11 12-10 9-16 8-5 1h-13l-11-4-9-7-6-9-2-6-1-14 2-10 7-14 11-17 18-27 7-11 2-5-1-7-2-2-10 1-10 5-10 8-3 1v2l-7 6-9 11-10 12-13 19-9 14-11 19-10 19-7 16-8-1h-27l-12 1 2-5 15-27 12-21-5 5-9 11-10 10h-2v2l-14 11-14 8-14 5-6 1h-18l-12-3-12-6-10-8-8-12-3-11v-15l-4 5-7 8-7 9-11 12-9 9-11 7-9 4-5 1h-13l-9-3-8-6-7-8-4-11v-14l4-13-8 11-11 14-12 13-10 8-8 5-13 4h-13l-7-3-6-4-5-5-5-8-2-7v-15l2-9-14 18-11 12-7 7-10 7-10 5-7 2h-13l-11-4-8-6-7-10-2-6-1-13 3-12 10-18 24-36 9-15 1-2v-7l-4-4-10 1-10 5-14 12-8 8-9 11-8 10-8 11-12 18-10 17-13 24-9 16-8-1h-28l-13 1 1-4 14-23 33-55 10-18 8-16 2-7-1-7-1-1h-8l-11 8-13 14-8 10-11 16-6 7h-3l1-4 10-15 9-12 8-10 11-12 10-7 5-2h16l10 5 8 9 4 10v17l-3 10-3 5 1 1 7-11 13-17 8-9 14-11 12-7 6-2h15l8 3 6 4 8 9 4 11v19l-4 10-8 14-7 10-18 27-6 10-2 8 2 4 4 2h8l9-4 11-8 5-4 7-8 10-11 10-13 13-18 10-16 26-44 4-6 8 1h25l14-1-1 4-15 26-9 15-17 29-13 22-12 20-2 5v7l5 4h7l10-4 13-10 10-10 9-11 13-16 12-17 8-11 11-18 10-17 8-14h-23v-4l26-1 8-13 19-32 1-2 5 1 3 1h27l13-2-4 8-24 40 17-1h14l-1 4-6 1h-26l-8 13-32 54-10 17-9 15-8 14-2 6v6l1 3 7 1 12-3 9-5 10-8 13-13 11-14 10-13 8-13 10-15 11-12 4-2v-2l13-10 16-10 19-8 11-3 6-1h19l8 4 5 6 3 9v14l-4 15-4 8-7 9-9 7-3 1h-11l-6-4-3-5-1-10 4-11 8-8 8-5 16-7 3-5-1-8-4-4-9-1-10 5-11 9-11 12-15 20-13 21-10 21-3 11-1 8 2 9 5 6 10 4 9 1 12-2 15-6 16-11 17-16 9-10 11-14 10-15 6-10 32-56 14-24 16-28 12-20 6-11 15-26 7-12 3-1 9 2h20z" fill="#DB669D"/>
<path transform="translate(887,293)" d="m0 0 9 1 5 5v7l-4 9-8 11-19 19-11 9-15 12-22 15-4 15-8 37-7 34-7 24-10 25-10 18-9 12-9 10-13 13-13 10-13 9-13 8-14 8-21 10-25 9-23 6-29 4h-27l-17-2-16-4-12-5-13-8-3-1-2 6-7 18-2 13v11l3 12 4 8 8 9 3 3-1 3-7-1-8-9-5-10-3-10-1-6v-9l3-17 7-17 3-6-1-4-10-10-9-13-7-14-5-16-2-13v-27l3-19 6-20 5-13 12-22 10-14 7-9 11-13 10-10 11-9 14-11 19-12 14-8 25-11 21-7 18-4 8-1h25l16 4 14 7 12 11 6 9 4 8 3 12v27l-2 12 17-10 22-12 6-4 11-23 8-14 10-14 11-12 10-10 11-9 13-9 16-8zm-1 6-10 4-11 7-13 12-8 8-10 16-9 19-2 9 5-2 12-9 14-11 10-9 8-7 15-15 6-9 3-7-2-5-1-1zm-221 38-19 4-18 6-16 8-18 11-14 11-10 9-8 7-11 11-9 11-8 10-11 16-8 13-7 12-9 20-5 15-3 13-2 16v26l3 17 5 14 9 14 4-2 7-11 14-17 3-3v-2l3-1 7-8 7-7 6-5-1-5-5-11-2-10v-20l3-14 6-15 9-16 9-12 12-13 5-4v-2l4-2 12-9 17-10 11-5 14-4 15-2h8l14 3 9 6 6 8 3 9v15l-3-2v-11l-3-9-8-9-8-4-5-1h-16l-18 6-15 9-14 11-19 19-13 18-11 19-5 12-3 9-2 12v15l3 10 4-2 14-12 20-15 23-16 23-15 11-7 19-12 20-12 22-13 11-6 3-13 1-10v-13l-3-17-7-13-9-10-10-7-15-5-7-1zm115 65-13 8-25 14-6 5-6 19-9 20-8 14-13 19-8 9-7 8-2 4-4 2-10 10-18 13-10 6-19 8-15 3h-14l-12-3-9-4-10-8h-3l-12 11-12 13-18 22-6 9 2 4 10 7 14 7 14 4 7 1h29l16-3 16-5 14-6 14-8 13-9 13-10 14-12 14-14 9-11 11-15 10-16 6-10 8-16 14-31 6-15 6-16 10-25zm-51 30-20 12-13 8-28 17-17 11-22 14-19 13-16 12-16 13-8 7-1 4 6 8 8 6 10 3h17l13-3 13-5 16-9 12-9 10-9 14-14 13-17 10-15 13-25 7-19v-3z" fill="#DB679E"/>
<path transform="translate(1136,406)" d="m0 0h11l7 4 3 5v13l-4 9-7 11-10 9-10 6-6 2h-12l-7-4-3-8v-7l4-11 7-10 5-6 13-9z" fill="#DB659D"/>
</svg>
